<svg width="1802" height="1104" viewBox="0 0 1802 1104" fill="none" xmlns="http://www.w3.org/2000/svg">
<rect x="2" width="1800" height="1104" fill="white"/>
<rect opacity="0.1" width="1800" height="1104" fill="white"/>
<path d="M564.224 378.077C564.224 378.077 745.454 486.571 872.808 527.459C1009.37 571.302 1235.13 585.939 1235.13 585.939M702.678 639.009L822.913 183.237C823.536 180.877 826.946 181.202 827.121 183.638L866.379 804.054M934.953 359.155L974.598 920.962M1127.82 702.301C1127.82 702.301 1094.81 699.208 1050.67 693.1C1011.56 687.688 957.523 678.998 957.523 678.998" stroke="url(#paint0_linear_1394_473)" stroke-width="50" stroke-linecap="round"/>
<g opacity="0.1">
<path d="M36.3604 74.4491C36.3604 74.4491 62.6814 90.2063 81.1776 96.1447C101.011 102.512 133.799 104.638 133.799 104.638M56.4688 112.346L73.9312 46.1515C74.0216 45.8088 74.5169 45.856 74.5423 46.2098L80.2439 136.316M90.2033 71.7011L95.9611 153.295M118.214 121.538C118.214 121.538 113.42 121.089 107.01 120.202C101.33 119.415 93.4813 118.153 93.4813 118.153" stroke="url(#paint1_linear_1394_473)" stroke-width="10" stroke-linecap="round"/>
<path d="M220.36 74.4491C220.36 74.4491 246.681 90.2063 265.178 96.1447C285.011 102.512 317.799 104.638 317.799 104.638M240.469 112.346L257.931 46.1515C258.022 45.8088 258.517 45.856 258.542 46.2098L264.244 136.316M274.203 71.7011L279.961 153.295M302.214 121.538C302.214 121.538 297.42 121.089 291.01 120.202C285.33 119.415 277.481 118.153 277.481 118.153" stroke="url(#paint2_linear_1394_473)" stroke-width="10" stroke-linecap="round"/>
<path d="M404.36 74.4491C404.36 74.4491 430.681 90.2063 449.178 96.1447C469.011 102.512 501.799 104.638 501.799 104.638M424.469 112.346L441.931 46.1515C442.022 45.8088 442.517 45.856 442.542 46.2098L448.244 136.316M458.203 71.7011L463.961 153.295M486.214 121.538C486.214 121.538 481.42 121.089 475.01 120.202C469.33 119.415 461.481 118.153 461.481 118.153" stroke="url(#paint3_linear_1394_473)" stroke-width="10" stroke-linecap="round"/>
<path d="M588.36 74.4491C588.36 74.4491 614.681 90.2063 633.178 96.1447C653.011 102.512 685.799 104.638 685.799 104.638M608.469 112.346L625.931 46.1515C626.022 45.8088 626.517 45.856 626.542 46.2098L632.244 136.316M642.203 71.7011L647.961 153.295M670.214 121.538C670.214 121.538 665.42 121.089 659.01 120.202C653.33 119.415 645.481 118.153 645.481 118.153" stroke="url(#paint4_linear_1394_473)" stroke-width="10" stroke-linecap="round"/>
<path d="M772.36 74.4491C772.36 74.4491 798.681 90.2063 817.178 96.1447C837.011 102.512 869.799 104.638 869.799 104.638M792.469 112.346L809.931 46.1515C810.022 45.8088 810.517 45.856 810.542 46.2098L816.244 136.316M826.203 71.7011L831.961 153.295M854.214 121.538C854.214 121.538 849.42 121.089 843.01 120.202C837.33 119.415 829.481 118.153 829.481 118.153" stroke="url(#paint5_linear_1394_473)" stroke-width="10" stroke-linecap="round"/>
<path d="M956.36 74.4491C956.36 74.4491 982.681 90.2063 1001.18 96.1447C1021.01 102.512 1053.8 104.638 1053.8 104.638M976.469 112.346L993.931 46.1515C994.022 45.8088 994.517 45.856 994.542 46.2098L1000.24 136.316M1010.2 71.7011L1015.96 153.295M1038.21 121.538C1038.21 121.538 1033.42 121.089 1027.01 120.202C1021.33 119.415 1013.48 118.153 1013.48 118.153" stroke="url(#paint6_linear_1394_473)" stroke-width="10" stroke-linecap="round"/>
<path d="M1324.36 74.4491C1324.36 74.4491 1350.68 90.2063 1369.18 96.1447C1389.01 102.512 1421.8 104.638 1421.8 104.638M1344.47 112.346L1361.93 46.1515C1362.02 45.8088 1362.52 45.856 1362.54 46.2098L1368.24 136.316M1378.2 71.7011L1383.96 153.295M1406.21 121.538C1406.21 121.538 1401.42 121.089 1395.01 120.202C1389.33 119.415 1381.48 118.153 1381.48 118.153" stroke="url(#paint7_linear_1394_473)" stroke-width="10" stroke-linecap="round"/>
<path d="M1140.36 74.4491C1140.36 74.4491 1166.68 90.2063 1185.18 96.1447C1205.01 102.512 1237.8 104.638 1237.8 104.638M1160.47 112.346L1177.93 46.1515C1178.02 45.8088 1178.52 45.856 1178.54 46.2098L1184.24 136.316M1194.2 71.7011L1199.96 153.295M1222.21 121.538C1222.21 121.538 1217.42 121.089 1211.01 120.202C1205.33 119.415 1197.48 118.153 1197.48 118.153" stroke="url(#paint8_linear_1394_473)" stroke-width="10" stroke-linecap="round"/>
<path d="M1508.36 74.4491C1508.36 74.4491 1534.68 90.2063 1553.18 96.1447C1573.01 102.512 1605.8 104.638 1605.8 104.638M1528.47 112.346L1545.93 46.1515C1546.02 45.8088 1546.52 45.856 1546.54 46.2098L1552.24 136.316M1562.2 71.7011L1567.96 153.295M1590.21 121.538C1590.21 121.538 1585.42 121.089 1579.01 120.202C1573.33 119.415 1565.48 118.153 1565.48 118.153" stroke="url(#paint9_linear_1394_473)" stroke-width="10" stroke-linecap="round"/>
<path d="M956.36 74.4491C956.36 74.4491 982.681 90.2063 1001.18 96.1447C1021.01 102.512 1053.8 104.638 1053.8 104.638M976.469 112.346L993.931 46.1515C994.022 45.8088 994.517 45.856 994.542 46.2098L1000.24 136.316M1010.2 71.7011L1015.96 153.295M1038.21 121.538C1038.21 121.538 1033.42 121.089 1027.01 120.202C1021.33 119.415 1013.48 118.153 1013.48 118.153" stroke="url(#paint10_linear_1394_473)" stroke-width="10" stroke-linecap="round"/>
<path d="M156.36 255.449C156.36 255.449 182.681 271.206 201.178 277.145C221.011 283.512 253.799 285.638 253.799 285.638M176.469 293.346L193.931 227.152C194.022 226.809 194.517 226.856 194.542 227.21L200.244 317.316M210.203 252.701L215.961 334.295M238.214 302.538C238.214 302.538 233.42 302.089 227.01 301.202C221.33 300.415 213.481 299.153 213.481 299.153" stroke="url(#paint11_linear_1394_473)" stroke-width="10" stroke-linecap="round"/>
<path d="M340.36 255.449C340.36 255.449 366.681 271.206 385.178 277.145C405.011 283.512 437.799 285.638 437.799 285.638M360.469 293.346L377.931 227.152C378.022 226.809 378.517 226.856 378.542 227.21L384.244 317.316M394.203 252.701L399.961 334.295M422.214 302.538C422.214 302.538 417.42 302.089 411.01 301.202C405.33 300.415 397.481 299.153 397.481 299.153" stroke="url(#paint12_linear_1394_473)" stroke-width="10" stroke-linecap="round"/>
<path d="M524.36 255.449C524.36 255.449 550.681 271.206 569.178 277.145C589.011 283.512 621.799 285.638 621.799 285.638M544.469 293.346L561.931 227.152C562.022 226.809 562.517 226.856 562.542 227.21L568.244 317.316M578.203 252.701L583.961 334.295M606.214 302.538C606.214 302.538 601.42 302.089 595.01 301.202C589.33 300.415 581.481 299.153 581.481 299.153" stroke="url(#paint13_linear_1394_473)" stroke-width="10" stroke-linecap="round"/>
<path d="M708.36 255.449C708.36 255.449 734.681 271.206 753.178 277.145C773.011 283.512 805.799 285.638 805.799 285.638M728.469 293.346L745.931 227.152C746.022 226.809 746.517 226.856 746.542 227.21L752.244 317.316M762.203 252.701L767.961 334.295M790.214 302.538C790.214 302.538 785.42 302.089 779.01 301.202C773.33 300.415 765.481 299.153 765.481 299.153" stroke="url(#paint14_linear_1394_473)" stroke-width="10" stroke-linecap="round"/>
<path d="M892.36 255.449C892.36 255.449 918.681 271.206 937.178 277.145C957.011 283.512 989.799 285.638 989.799 285.638M912.469 293.346L929.931 227.152C930.022 226.809 930.517 226.856 930.542 227.21L936.244 317.316M946.203 252.701L951.961 334.295M974.214 302.538C974.214 302.538 969.42 302.089 963.01 301.202C957.33 300.415 949.481 299.153 949.481 299.153" stroke="url(#paint15_linear_1394_473)" stroke-width="10" stroke-linecap="round"/>
<path d="M1076.36 255.449C1076.36 255.449 1102.68 271.206 1121.18 277.145C1141.01 283.512 1173.8 285.638 1173.8 285.638M1096.47 293.346L1113.93 227.152C1114.02 226.809 1114.52 226.856 1114.54 227.21L1120.24 317.316M1130.2 252.701L1135.96 334.295M1158.21 302.538C1158.21 302.538 1153.42 302.089 1147.01 301.202C1141.33 300.415 1133.48 299.153 1133.48 299.153" stroke="url(#paint16_linear_1394_473)" stroke-width="10" stroke-linecap="round"/>
<path d="M1444.36 255.449C1444.36 255.449 1470.68 271.206 1489.18 277.145C1509.01 283.512 1541.8 285.638 1541.8 285.638M1464.47 293.346L1481.93 227.152C1482.02 226.809 1482.52 226.856 1482.54 227.21L1488.24 317.316M1498.2 252.701L1503.96 334.295M1526.21 302.538C1526.21 302.538 1521.42 302.089 1515.01 301.202C1509.33 300.415 1501.48 299.153 1501.48 299.153" stroke="url(#paint17_linear_1394_473)" stroke-width="10" stroke-linecap="round"/>
<path d="M1260.36 255.449C1260.36 255.449 1286.68 271.206 1305.18 277.145C1325.01 283.512 1357.8 285.638 1357.8 285.638M1280.47 293.346L1297.93 227.152C1298.02 226.809 1298.52 226.856 1298.54 227.21L1304.24 317.316M1314.2 252.701L1319.96 334.295M1342.21 302.538C1342.21 302.538 1337.42 302.089 1331.01 301.202C1325.33 300.415 1317.48 299.153 1317.48 299.153" stroke="url(#paint18_linear_1394_473)" stroke-width="10" stroke-linecap="round"/>
<path d="M1628.36 255.449C1628.36 255.449 1654.68 271.206 1673.18 277.145C1693.01 283.512 1725.8 285.638 1725.8 285.638M1648.47 293.346L1665.93 227.152C1666.02 226.809 1666.52 226.856 1666.54 227.21L1672.24 317.316M1682.2 252.701L1687.96 334.295M1710.21 302.538C1710.21 302.538 1705.42 302.089 1699.01 301.202C1693.33 300.415 1685.48 299.153 1685.48 299.153" stroke="url(#paint19_linear_1394_473)" stroke-width="10" stroke-linecap="round"/>
<path d="M36.3604 436.449C36.3604 436.449 62.6814 452.206 81.1776 458.145C101.011 464.512 133.799 466.638 133.799 466.638M56.4688 474.346L73.9312 408.152C74.0216 407.809 74.5169 407.856 74.5423 408.21L80.2439 498.316M90.2033 433.701L95.9611 515.295M118.214 483.538C118.214 483.538 113.42 483.089 107.01 482.202C101.33 481.415 93.4813 480.153 93.4813 480.153" stroke="url(#paint20_linear_1394_473)" stroke-width="10" stroke-linecap="round"/>
<path d="M220.36 436.449C220.36 436.449 246.681 452.206 265.178 458.145C285.011 464.512 317.799 466.638 317.799 466.638M240.469 474.346L257.931 408.152C258.022 407.809 258.517 407.856 258.542 408.21L264.244 498.316M274.203 433.701L279.961 515.295M302.214 483.538C302.214 483.538 297.42 483.089 291.01 482.202C285.33 481.415 277.481 480.153 277.481 480.153" stroke="url(#paint21_linear_1394_473)" stroke-width="10" stroke-linecap="round"/>
<path d="M404.36 436.449C404.36 436.449 430.681 452.206 449.178 458.145C469.011 464.512 501.799 466.638 501.799 466.638M424.469 474.346L441.931 408.152C442.022 407.809 442.517 407.856 442.542 408.21L448.244 498.316M458.203 433.701L463.961 515.295M486.214 483.538C486.214 483.538 481.42 483.089 475.01 482.202C469.33 481.415 461.481 480.153 461.481 480.153" stroke="url(#paint22_linear_1394_473)" stroke-width="10" stroke-linecap="round"/>
<path d="M588.36 436.449C588.36 436.449 614.681 452.206 633.178 458.145C653.011 464.512 685.799 466.638 685.799 466.638M608.469 474.346L625.931 408.152C626.022 407.809 626.517 407.856 626.542 408.21L632.244 498.316M642.203 433.701L647.961 515.295M670.214 483.538C670.214 483.538 665.42 483.089 659.01 482.202C653.33 481.415 645.481 480.153 645.481 480.153" stroke="url(#paint23_linear_1394_473)" stroke-width="10" stroke-linecap="round"/>
<path d="M772.36 436.449C772.36 436.449 798.681 452.206 817.178 458.145C837.011 464.512 869.799 466.638 869.799 466.638M792.469 474.346L809.931 408.152C810.022 407.809 810.517 407.856 810.542 408.21L816.244 498.316M826.203 433.701L831.961 515.295M854.214 483.538C854.214 483.538 849.42 483.089 843.01 482.202C837.33 481.415 829.481 480.153 829.481 480.153" stroke="url(#paint24_linear_1394_473)" stroke-width="10" stroke-linecap="round"/>
<path d="M956.36 436.449C956.36 436.449 982.681 452.206 1001.18 458.145C1021.01 464.512 1053.8 466.638 1053.8 466.638M976.469 474.346L993.931 408.152C994.022 407.809 994.517 407.856 994.542 408.21L1000.24 498.316M1010.2 433.701L1015.96 515.295M1038.21 483.538C1038.21 483.538 1033.42 483.089 1027.01 482.202C1021.33 481.415 1013.48 480.153 1013.48 480.153" stroke="url(#paint25_linear_1394_473)" stroke-width="10" stroke-linecap="round"/>
<path d="M1324.36 436.449C1324.36 436.449 1350.68 452.206 1369.18 458.145C1389.01 464.512 1421.8 466.638 1421.8 466.638M1344.47 474.346L1361.93 408.152C1362.02 407.809 1362.52 407.856 1362.54 408.21L1368.24 498.316M1378.2 433.701L1383.96 515.295M1406.21 483.538C1406.21 483.538 1401.42 483.089 1395.01 482.202C1389.33 481.415 1381.48 480.153 1381.48 480.153" stroke="url(#paint26_linear_1394_473)" stroke-width="10" stroke-linecap="round"/>
<path d="M1140.36 436.449C1140.36 436.449 1166.68 452.206 1185.18 458.145C1205.01 464.512 1237.8 466.638 1237.8 466.638M1160.47 474.346L1177.93 408.152C1178.02 407.809 1178.52 407.856 1178.54 408.21L1184.24 498.316M1194.2 433.701L1199.96 515.295M1222.21 483.538C1222.21 483.538 1217.42 483.089 1211.01 482.202C1205.33 481.415 1197.48 480.153 1197.48 480.153" stroke="url(#paint27_linear_1394_473)" stroke-width="10" stroke-linecap="round"/>
<path d="M1508.36 436.449C1508.36 436.449 1534.68 452.206 1553.18 458.145C1573.01 464.512 1605.8 466.638 1605.8 466.638M1528.47 474.346L1545.93 408.152C1546.02 407.809 1546.52 407.856 1546.54 408.21L1552.24 498.316M1562.2 433.701L1567.96 515.295M1590.21 483.538C1590.21 483.538 1585.42 483.089 1579.01 482.202C1573.33 481.415 1565.48 480.153 1565.48 480.153" stroke="url(#paint28_linear_1394_473)" stroke-width="10" stroke-linecap="round"/>
<path d="M956.36 436.449C956.36 436.449 982.681 452.206 1001.18 458.145C1021.01 464.512 1053.8 466.638 1053.8 466.638M976.469 474.346L993.931 408.152C994.022 407.809 994.517 407.856 994.542 408.21L1000.24 498.316M1010.2 433.701L1015.96 515.295M1038.21 483.538C1038.21 483.538 1033.42 483.089 1027.01 482.202C1021.33 481.415 1013.48 480.153 1013.48 480.153" stroke="url(#paint29_linear_1394_473)" stroke-width="10" stroke-linecap="round"/>
<path d="M156.36 617.449C156.36 617.449 182.681 633.206 201.178 639.145C221.011 645.512 253.799 647.638 253.799 647.638M176.469 655.346L193.931 589.152C194.022 588.809 194.517 588.856 194.542 589.21L200.244 679.316M210.203 614.701L215.961 696.295M238.214 664.538C238.214 664.538 233.42 664.089 227.01 663.202C221.33 662.415 213.481 661.153 213.481 661.153" stroke="url(#paint30_linear_1394_473)" stroke-width="10" stroke-linecap="round"/>
<path d="M340.36 617.449C340.36 617.449 366.681 633.206 385.178 639.145C405.011 645.512 437.799 647.638 437.799 647.638M360.469 655.346L377.931 589.152C378.022 588.809 378.517 588.856 378.542 589.21L384.244 679.316M394.203 614.701L399.961 696.295M422.214 664.538C422.214 664.538 417.42 664.089 411.01 663.202C405.33 662.415 397.481 661.153 397.481 661.153" stroke="url(#paint31_linear_1394_473)" stroke-width="10" stroke-linecap="round"/>
<path d="M524.36 617.449C524.36 617.449 550.681 633.206 569.178 639.145C589.011 645.512 621.799 647.638 621.799 647.638M544.469 655.346L561.931 589.152C562.022 588.809 562.517 588.856 562.542 589.21L568.244 679.316M578.203 614.701L583.961 696.295M606.214 664.538C606.214 664.538 601.42 664.089 595.01 663.202C589.33 662.415 581.481 661.153 581.481 661.153" stroke="url(#paint32_linear_1394_473)" stroke-width="10" stroke-linecap="round"/>
<path d="M708.36 617.449C708.36 617.449 734.681 633.206 753.178 639.145C773.011 645.512 805.799 647.638 805.799 647.638M728.469 655.346L745.931 589.152C746.022 588.809 746.517 588.856 746.542 589.21L752.244 679.316M762.203 614.701L767.961 696.295M790.214 664.538C790.214 664.538 785.42 664.089 779.01 663.202C773.33 662.415 765.481 661.153 765.481 661.153" stroke="url(#paint33_linear_1394_473)" stroke-width="10" stroke-linecap="round"/>
<path d="M892.36 617.449C892.36 617.449 918.681 633.206 937.178 639.145C957.011 645.512 989.799 647.638 989.799 647.638M912.469 655.346L929.931 589.152C930.022 588.809 930.517 588.856 930.542 589.21L936.244 679.316M946.203 614.701L951.961 696.295M974.214 664.538C974.214 664.538 969.42 664.089 963.01 663.202C957.33 662.415 949.481 661.153 949.481 661.153" stroke="url(#paint34_linear_1394_473)" stroke-width="10" stroke-linecap="round"/>
<path d="M1076.36 617.449C1076.36 617.449 1102.68 633.206 1121.18 639.145C1141.01 645.512 1173.8 647.638 1173.8 647.638M1096.47 655.346L1113.93 589.152C1114.02 588.809 1114.52 588.856 1114.54 589.21L1120.24 679.316M1130.2 614.701L1135.96 696.295M1158.21 664.538C1158.21 664.538 1153.42 664.089 1147.01 663.202C1141.33 662.415 1133.48 661.153 1133.48 661.153" stroke="url(#paint35_linear_1394_473)" stroke-width="10" stroke-linecap="round"/>
<path d="M1444.36 617.449C1444.36 617.449 1470.68 633.206 1489.18 639.145C1509.01 645.512 1541.8 647.638 1541.8 647.638M1464.47 655.346L1481.93 589.152C1482.02 588.809 1482.52 588.856 1482.54 589.21L1488.24 679.316M1498.2 614.701L1503.96 696.295M1526.21 664.538C1526.21 664.538 1521.42 664.089 1515.01 663.202C1509.33 662.415 1501.48 661.153 1501.48 661.153" stroke="url(#paint36_linear_1394_473)" stroke-width="10" stroke-linecap="round"/>
<path d="M1260.36 617.449C1260.36 617.449 1286.68 633.206 1305.18 639.145C1325.01 645.512 1357.8 647.638 1357.8 647.638M1280.47 655.346L1297.93 589.152C1298.02 588.809 1298.52 588.856 1298.54 589.21L1304.24 679.316M1314.2 614.701L1319.96 696.295M1342.21 664.538C1342.21 664.538 1337.42 664.089 1331.01 663.202C1325.33 662.415 1317.48 661.153 1317.48 661.153" stroke="url(#paint37_linear_1394_473)" stroke-width="10" stroke-linecap="round"/>
<path d="M1628.36 617.449C1628.36 617.449 1654.68 633.206 1673.18 639.145C1693.01 645.512 1725.8 647.638 1725.8 647.638M1648.47 655.346L1665.93 589.152C1666.02 588.809 1666.52 588.856 1666.54 589.21L1672.24 679.316M1682.2 614.701L1687.96 696.295M1710.21 664.538C1710.21 664.538 1705.42 664.089 1699.01 663.202C1693.33 662.415 1685.48 661.153 1685.48 661.153" stroke="url(#paint38_linear_1394_473)" stroke-width="10" stroke-linecap="round"/>
<path d="M74.3604 798.449C74.3604 798.449 100.681 814.206 119.178 820.145C139.011 826.512 171.799 828.638 171.799 828.638M94.4688 836.346L111.931 770.152C112.022 769.809 112.517 769.856 112.542 770.21L118.244 860.316M128.203 795.701L133.961 877.295M156.214 845.538C156.214 845.538 151.42 845.089 145.01 844.202C139.33 843.415 131.481 842.153 131.481 842.153" stroke="url(#paint39_linear_1394_473)" stroke-width="10" stroke-linecap="round"/>
<path d="M258.36 798.449C258.36 798.449 284.681 814.206 303.178 820.145C323.011 826.512 355.799 828.638 355.799 828.638M278.469 836.346L295.931 770.152C296.022 769.809 296.517 769.856 296.542 770.21L302.244 860.316M312.203 795.701L317.961 877.295M340.214 845.538C340.214 845.538 335.42 845.089 329.01 844.202C323.33 843.415 315.481 842.153 315.481 842.153" stroke="url(#paint40_linear_1394_473)" stroke-width="10" stroke-linecap="round"/>
<path d="M442.36 798.449C442.36 798.449 468.681 814.206 487.178 820.145C507.011 826.512 539.799 828.638 539.799 828.638M462.469 836.346L479.931 770.152C480.022 769.809 480.517 769.856 480.542 770.21L486.244 860.316M496.203 795.701L501.961 877.295M524.214 845.538C524.214 845.538 519.42 845.089 513.01 844.202C507.33 843.415 499.481 842.153 499.481 842.153" stroke="url(#paint41_linear_1394_473)" stroke-width="10" stroke-linecap="round"/>
<path d="M626.36 798.449C626.36 798.449 652.681 814.206 671.178 820.145C691.011 826.512 723.799 828.638 723.799 828.638M646.469 836.346L663.931 770.152C664.022 769.809 664.517 769.856 664.542 770.21L670.244 860.316M680.203 795.701L685.961 877.295M708.214 845.538C708.214 845.538 703.42 845.089 697.01 844.202C691.33 843.415 683.481 842.153 683.481 842.153" stroke="url(#paint42_linear_1394_473)" stroke-width="10" stroke-linecap="round"/>
<path d="M810.36 798.449C810.36 798.449 836.681 814.206 855.178 820.145C875.011 826.512 907.799 828.638 907.799 828.638M830.469 836.346L847.931 770.152C848.022 769.809 848.517 769.856 848.542 770.21L854.244 860.316M864.203 795.701L869.961 877.295M892.214 845.538C892.214 845.538 887.42 845.089 881.01 844.202C875.33 843.415 867.481 842.153 867.481 842.153" stroke="url(#paint43_linear_1394_473)" stroke-width="10" stroke-linecap="round"/>
<path d="M994.36 798.449C994.36 798.449 1020.68 814.206 1039.18 820.145C1059.01 826.512 1091.8 828.638 1091.8 828.638M1014.47 836.346L1031.93 770.152C1032.02 769.809 1032.52 769.856 1032.54 770.21L1038.24 860.316M1048.2 795.701L1053.96 877.295M1076.21 845.538C1076.21 845.538 1071.42 845.089 1065.01 844.202C1059.33 843.415 1051.48 842.153 1051.48 842.153" stroke="url(#paint44_linear_1394_473)" stroke-width="10" stroke-linecap="round"/>
<path d="M1362.36 798.449C1362.36 798.449 1388.68 814.206 1407.18 820.145C1427.01 826.512 1459.8 828.638 1459.8 828.638M1382.47 836.346L1399.93 770.152C1400.02 769.809 1400.52 769.856 1400.54 770.21L1406.24 860.316M1416.2 795.701L1421.96 877.295M1444.21 845.538C1444.21 845.538 1439.42 845.089 1433.01 844.202C1427.33 843.415 1419.48 842.153 1419.48 842.153" stroke="url(#paint45_linear_1394_473)" stroke-width="10" stroke-linecap="round"/>
<path d="M1178.36 798.449C1178.36 798.449 1204.68 814.206 1223.18 820.145C1243.01 826.512 1275.8 828.638 1275.8 828.638M1198.47 836.346L1215.93 770.152C1216.02 769.809 1216.52 769.856 1216.54 770.21L1222.24 860.316M1232.2 795.701L1237.96 877.295M1260.21 845.538C1260.21 845.538 1255.42 845.089 1249.01 844.202C1243.33 843.415 1235.48 842.153 1235.48 842.153" stroke="url(#paint46_linear_1394_473)" stroke-width="10" stroke-linecap="round"/>
<path d="M1546.36 798.449C1546.36 798.449 1572.68 814.206 1591.18 820.145C1611.01 826.512 1643.8 828.638 1643.8 828.638M1566.47 836.346L1583.93 770.152C1584.02 769.809 1584.52 769.856 1584.54 770.21L1590.24 860.316M1600.2 795.701L1605.96 877.295M1628.21 845.538C1628.21 845.538 1623.42 845.089 1617.01 844.202C1611.33 843.415 1603.48 842.153 1603.48 842.153" stroke="url(#paint47_linear_1394_473)" stroke-width="10" stroke-linecap="round"/>
<path d="M994.36 798.449C994.36 798.449 1020.68 814.206 1039.18 820.145C1059.01 826.512 1091.8 828.638 1091.8 828.638M1014.47 836.346L1031.93 770.152C1032.02 769.809 1032.52 769.856 1032.54 770.21L1038.24 860.316M1048.2 795.701L1053.96 877.295M1076.21 845.538C1076.21 845.538 1071.42 845.089 1065.01 844.202C1059.33 843.415 1051.48 842.153 1051.48 842.153" stroke="url(#paint48_linear_1394_473)" stroke-width="10" stroke-linecap="round"/>
<path d="M194.36 979.449C194.36 979.449 220.681 995.206 239.178 1001.14C259.011 1007.51 291.799 1009.64 291.799 1009.64M214.469 1017.35L231.931 951.152C232.022 950.809 232.517 950.856 232.542 951.21L238.244 1041.32M248.203 976.701L253.961 1058.3M276.214 1026.54C276.214 1026.54 271.42 1026.09 265.01 1025.2C259.33 1024.42 251.481 1023.15 251.481 1023.15" stroke="url(#paint49_linear_1394_473)" stroke-width="10" stroke-linecap="round"/>
<path d="M378.36 979.449C378.36 979.449 404.681 995.206 423.178 1001.14C443.011 1007.51 475.799 1009.64 475.799 1009.64M398.469 1017.35L415.931 951.152C416.022 950.809 416.517 950.856 416.542 951.21L422.244 1041.32M432.203 976.701L437.961 1058.3M460.214 1026.54C460.214 1026.54 455.42 1026.09 449.01 1025.2C443.33 1024.42 435.481 1023.15 435.481 1023.15" stroke="url(#paint50_linear_1394_473)" stroke-width="10" stroke-linecap="round"/>
<path d="M562.36 979.449C562.36 979.449 588.681 995.206 607.178 1001.14C627.011 1007.51 659.799 1009.64 659.799 1009.64M582.469 1017.35L599.931 951.152C600.022 950.809 600.517 950.856 600.542 951.21L606.244 1041.32M616.203 976.701L621.961 1058.3M644.214 1026.54C644.214 1026.54 639.42 1026.09 633.01 1025.2C627.33 1024.42 619.481 1023.15 619.481 1023.15" stroke="url(#paint51_linear_1394_473)" stroke-width="10" stroke-linecap="round"/>
<path d="M746.36 979.449C746.36 979.449 772.681 995.206 791.178 1001.14C811.011 1007.51 843.799 1009.64 843.799 1009.64M766.469 1017.35L783.931 951.152C784.022 950.809 784.517 950.856 784.542 951.21L790.244 1041.32M800.203 976.701L805.961 1058.3M828.214 1026.54C828.214 1026.54 823.42 1026.09 817.01 1025.2C811.33 1024.42 803.481 1023.15 803.481 1023.15" stroke="url(#paint52_linear_1394_473)" stroke-width="10" stroke-linecap="round"/>
<path d="M930.36 979.449C930.36 979.449 956.681 995.206 975.178 1001.14C995.011 1007.51 1027.8 1009.64 1027.8 1009.64M950.469 1017.35L967.931 951.152C968.022 950.809 968.517 950.856 968.542 951.21L974.244 1041.32M984.203 976.701L989.961 1058.3M1012.21 1026.54C1012.21 1026.54 1007.42 1026.09 1001.01 1025.2C995.33 1024.42 987.481 1023.15 987.481 1023.15" stroke="url(#paint53_linear_1394_473)" stroke-width="10" stroke-linecap="round"/>
<path d="M1114.36 979.449C1114.36 979.449 1140.68 995.206 1159.18 1001.14C1179.01 1007.51 1211.8 1009.64 1211.8 1009.64M1134.47 1017.35L1151.93 951.152C1152.02 950.809 1152.52 950.856 1152.54 951.21L1158.24 1041.32M1168.2 976.701L1173.96 1058.3M1196.21 1026.54C1196.21 1026.54 1191.42 1026.09 1185.01 1025.2C1179.33 1024.42 1171.48 1023.15 1171.48 1023.15" stroke="url(#paint54_linear_1394_473)" stroke-width="10" stroke-linecap="round"/>
<path d="M1482.36 979.449C1482.36 979.449 1508.68 995.206 1527.18 1001.14C1547.01 1007.51 1579.8 1009.64 1579.8 1009.64M1502.47 1017.35L1519.93 951.152C1520.02 950.809 1520.52 950.856 1520.54 951.21L1526.24 1041.32M1536.2 976.701L1541.96 1058.3M1564.21 1026.54C1564.21 1026.54 1559.42 1026.09 1553.01 1025.2C1547.33 1024.42 1539.48 1023.15 1539.48 1023.15" stroke="url(#paint55_linear_1394_473)" stroke-width="10" stroke-linecap="round"/>
<path d="M1298.36 979.449C1298.36 979.449 1324.68 995.206 1343.18 1001.14C1363.01 1007.51 1395.8 1009.64 1395.8 1009.64M1318.47 1017.35L1335.93 951.152C1336.02 950.809 1336.52 950.856 1336.54 951.21L1342.24 1041.32M1352.2 976.701L1357.96 1058.3M1380.21 1026.54C1380.21 1026.54 1375.42 1026.09 1369.01 1025.2C1363.33 1024.42 1355.48 1023.15 1355.48 1023.15" stroke="url(#paint56_linear_1394_473)" stroke-width="10" stroke-linecap="round"/>
<path d="M1666.36 979.449C1666.36 979.449 1692.68 995.206 1711.18 1001.14C1731.01 1007.51 1763.8 1009.64 1763.8 1009.64M1686.47 1017.35L1703.93 951.152C1704.02 950.809 1704.52 950.856 1704.54 951.21L1710.24 1041.32M1720.2 976.701L1725.96 1058.3M1748.21 1026.54C1748.21 1026.54 1743.42 1026.09 1737.01 1025.2C1731.33 1024.42 1723.48 1023.15 1723.48 1023.15" stroke="url(#paint57_linear_1394_473)" stroke-width="10" stroke-linecap="round"/>
</g>
<defs>
<linearGradient id="paint0_linear_1394_473" x1="541.723" y1="363.485" x2="1266.26" y2="586.605" gradientUnits="userSpaceOnUse">
<stop stop-color="#FF003D"/>
<stop offset="1" stop-color="#D24CC5"/>
</linearGradient>
<linearGradient id="paint1_linear_1394_473" x1="33.0924" y1="72.3299" x2="138.321" y2="104.735" gradientUnits="userSpaceOnUse">
<stop stop-color="#FF003D"/>
<stop offset="1" stop-color="#D24CC5"/>
</linearGradient>
<linearGradient id="paint2_linear_1394_473" x1="217.092" y1="72.3299" x2="322.321" y2="104.735" gradientUnits="userSpaceOnUse">
<stop stop-color="#FF003D"/>
<stop offset="1" stop-color="#D24CC5"/>
</linearGradient>
<linearGradient id="paint3_linear_1394_473" x1="401.092" y1="72.3299" x2="506.321" y2="104.735" gradientUnits="userSpaceOnUse">
<stop stop-color="#FF003D"/>
<stop offset="1" stop-color="#D24CC5"/>
</linearGradient>
<linearGradient id="paint4_linear_1394_473" x1="585.092" y1="72.3299" x2="690.321" y2="104.735" gradientUnits="userSpaceOnUse">
<stop stop-color="#FF003D"/>
<stop offset="1" stop-color="#D24CC5"/>
</linearGradient>
<linearGradient id="paint5_linear_1394_473" x1="769.092" y1="72.3299" x2="874.321" y2="104.735" gradientUnits="userSpaceOnUse">
<stop stop-color="#FF003D"/>
<stop offset="1" stop-color="#D24CC5"/>
</linearGradient>
<linearGradient id="paint6_linear_1394_473" x1="953.092" y1="72.3299" x2="1058.32" y2="104.735" gradientUnits="userSpaceOnUse">
<stop stop-color="#FF003D"/>
<stop offset="1" stop-color="#D24CC5"/>
</linearGradient>
<linearGradient id="paint7_linear_1394_473" x1="1321.09" y1="72.3299" x2="1426.32" y2="104.735" gradientUnits="userSpaceOnUse">
<stop stop-color="#FF003D"/>
<stop offset="1" stop-color="#D24CC5"/>
</linearGradient>
<linearGradient id="paint8_linear_1394_473" x1="1137.09" y1="72.3299" x2="1242.32" y2="104.735" gradientUnits="userSpaceOnUse">
<stop stop-color="#FF003D"/>
<stop offset="1" stop-color="#D24CC5"/>
</linearGradient>
<linearGradient id="paint9_linear_1394_473" x1="1505.09" y1="72.3299" x2="1610.32" y2="104.735" gradientUnits="userSpaceOnUse">
<stop stop-color="#FF003D"/>
<stop offset="1" stop-color="#D24CC5"/>
</linearGradient>
<linearGradient id="paint10_linear_1394_473" x1="953.092" y1="72.3299" x2="1058.32" y2="104.735" gradientUnits="userSpaceOnUse">
<stop stop-color="#FF003D"/>
<stop offset="1" stop-color="#D24CC5"/>
</linearGradient>
<linearGradient id="paint11_linear_1394_473" x1="153.092" y1="253.33" x2="258.321" y2="285.735" gradientUnits="userSpaceOnUse">
<stop stop-color="#FF003D"/>
<stop offset="1" stop-color="#D24CC5"/>
</linearGradient>
<linearGradient id="paint12_linear_1394_473" x1="337.092" y1="253.33" x2="442.321" y2="285.735" gradientUnits="userSpaceOnUse">
<stop stop-color="#FF003D"/>
<stop offset="1" stop-color="#D24CC5"/>
</linearGradient>
<linearGradient id="paint13_linear_1394_473" x1="521.092" y1="253.33" x2="626.321" y2="285.735" gradientUnits="userSpaceOnUse">
<stop stop-color="#FF003D"/>
<stop offset="1" stop-color="#D24CC5"/>
</linearGradient>
<linearGradient id="paint14_linear_1394_473" x1="705.092" y1="253.33" x2="810.321" y2="285.735" gradientUnits="userSpaceOnUse">
<stop stop-color="#FF003D"/>
<stop offset="1" stop-color="#D24CC5"/>
</linearGradient>
<linearGradient id="paint15_linear_1394_473" x1="889.092" y1="253.33" x2="994.321" y2="285.735" gradientUnits="userSpaceOnUse">
<stop stop-color="#FF003D"/>
<stop offset="1" stop-color="#D24CC5"/>
</linearGradient>
<linearGradient id="paint16_linear_1394_473" x1="1073.09" y1="253.33" x2="1178.32" y2="285.735" gradientUnits="userSpaceOnUse">
<stop stop-color="#FF003D"/>
<stop offset="1" stop-color="#D24CC5"/>
</linearGradient>
<linearGradient id="paint17_linear_1394_473" x1="1441.09" y1="253.33" x2="1546.32" y2="285.735" gradientUnits="userSpaceOnUse">
<stop stop-color="#FF003D"/>
<stop offset="1" stop-color="#D24CC5"/>
</linearGradient>
<linearGradient id="paint18_linear_1394_473" x1="1257.09" y1="253.33" x2="1362.32" y2="285.735" gradientUnits="userSpaceOnUse">
<stop stop-color="#FF003D"/>
<stop offset="1" stop-color="#D24CC5"/>
</linearGradient>
<linearGradient id="paint19_linear_1394_473" x1="1625.09" y1="253.33" x2="1730.32" y2="285.735" gradientUnits="userSpaceOnUse">
<stop stop-color="#FF003D"/>
<stop offset="1" stop-color="#D24CC5"/>
</linearGradient>
<linearGradient id="paint20_linear_1394_473" x1="33.0924" y1="434.33" x2="138.321" y2="466.735" gradientUnits="userSpaceOnUse">
<stop stop-color="#FF003D"/>
<stop offset="1" stop-color="#D24CC5"/>
</linearGradient>
<linearGradient id="paint21_linear_1394_473" x1="217.092" y1="434.33" x2="322.321" y2="466.735" gradientUnits="userSpaceOnUse">
<stop stop-color="#FF003D"/>
<stop offset="1" stop-color="#D24CC5"/>
</linearGradient>
<linearGradient id="paint22_linear_1394_473" x1="401.092" y1="434.33" x2="506.321" y2="466.735" gradientUnits="userSpaceOnUse">
<stop stop-color="#FF003D"/>
<stop offset="1" stop-color="#D24CC5"/>
</linearGradient>
<linearGradient id="paint23_linear_1394_473" x1="585.092" y1="434.33" x2="690.321" y2="466.735" gradientUnits="userSpaceOnUse">
<stop stop-color="#FF003D"/>
<stop offset="1" stop-color="#D24CC5"/>
</linearGradient>
<linearGradient id="paint24_linear_1394_473" x1="769.092" y1="434.33" x2="874.321" y2="466.735" gradientUnits="userSpaceOnUse">
<stop stop-color="#FF003D"/>
<stop offset="1" stop-color="#D24CC5"/>
</linearGradient>
<linearGradient id="paint25_linear_1394_473" x1="953.092" y1="434.33" x2="1058.32" y2="466.735" gradientUnits="userSpaceOnUse">
<stop stop-color="#FF003D"/>
<stop offset="1" stop-color="#D24CC5"/>
</linearGradient>
<linearGradient id="paint26_linear_1394_473" x1="1321.09" y1="434.33" x2="1426.32" y2="466.735" gradientUnits="userSpaceOnUse">
<stop stop-color="#FF003D"/>
<stop offset="1" stop-color="#D24CC5"/>
</linearGradient>
<linearGradient id="paint27_linear_1394_473" x1="1137.09" y1="434.33" x2="1242.32" y2="466.735" gradientUnits="userSpaceOnUse">
<stop stop-color="#FF003D"/>
<stop offset="1" stop-color="#D24CC5"/>
</linearGradient>
<linearGradient id="paint28_linear_1394_473" x1="1505.09" y1="434.33" x2="1610.32" y2="466.735" gradientUnits="userSpaceOnUse">
<stop stop-color="#FF003D"/>
<stop offset="1" stop-color="#D24CC5"/>
</linearGradient>
<linearGradient id="paint29_linear_1394_473" x1="953.092" y1="434.33" x2="1058.32" y2="466.735" gradientUnits="userSpaceOnUse">
<stop stop-color="#FF003D"/>
<stop offset="1" stop-color="#D24CC5"/>
</linearGradient>
<linearGradient id="paint30_linear_1394_473" x1="153.092" y1="615.33" x2="258.321" y2="647.735" gradientUnits="userSpaceOnUse">
<stop stop-color="#FF003D"/>
<stop offset="1" stop-color="#D24CC5"/>
</linearGradient>
<linearGradient id="paint31_linear_1394_473" x1="337.092" y1="615.33" x2="442.321" y2="647.735" gradientUnits="userSpaceOnUse">
<stop stop-color="#FF003D"/>
<stop offset="1" stop-color="#D24CC5"/>
</linearGradient>
<linearGradient id="paint32_linear_1394_473" x1="521.092" y1="615.33" x2="626.321" y2="647.735" gradientUnits="userSpaceOnUse">
<stop stop-color="#FF003D"/>
<stop offset="1" stop-color="#D24CC5"/>
</linearGradient>
<linearGradient id="paint33_linear_1394_473" x1="705.092" y1="615.33" x2="810.321" y2="647.735" gradientUnits="userSpaceOnUse">
<stop stop-color="#FF003D"/>
<stop offset="1" stop-color="#D24CC5"/>
</linearGradient>
<linearGradient id="paint34_linear_1394_473" x1="889.092" y1="615.33" x2="994.321" y2="647.735" gradientUnits="userSpaceOnUse">
<stop stop-color="#FF003D"/>
<stop offset="1" stop-color="#D24CC5"/>
</linearGradient>
<linearGradient id="paint35_linear_1394_473" x1="1073.09" y1="615.33" x2="1178.32" y2="647.735" gradientUnits="userSpaceOnUse">
<stop stop-color="#FF003D"/>
<stop offset="1" stop-color="#D24CC5"/>
</linearGradient>
<linearGradient id="paint36_linear_1394_473" x1="1441.09" y1="615.33" x2="1546.32" y2="647.735" gradientUnits="userSpaceOnUse">
<stop stop-color="#FF003D"/>
<stop offset="1" stop-color="#D24CC5"/>
</linearGradient>
<linearGradient id="paint37_linear_1394_473" x1="1257.09" y1="615.33" x2="1362.32" y2="647.735" gradientUnits="userSpaceOnUse">
<stop stop-color="#FF003D"/>
<stop offset="1" stop-color="#D24CC5"/>
</linearGradient>
<linearGradient id="paint38_linear_1394_473" x1="1625.09" y1="615.33" x2="1730.32" y2="647.735" gradientUnits="userSpaceOnUse">
<stop stop-color="#FF003D"/>
<stop offset="1" stop-color="#D24CC5"/>
</linearGradient>
<linearGradient id="paint39_linear_1394_473" x1="71.0924" y1="796.33" x2="176.321" y2="828.735" gradientUnits="userSpaceOnUse">
<stop stop-color="#FF003D"/>
<stop offset="1" stop-color="#D24CC5"/>
</linearGradient>
<linearGradient id="paint40_linear_1394_473" x1="255.092" y1="796.33" x2="360.321" y2="828.735" gradientUnits="userSpaceOnUse">
<stop stop-color="#FF003D"/>
<stop offset="1" stop-color="#D24CC5"/>
</linearGradient>
<linearGradient id="paint41_linear_1394_473" x1="439.092" y1="796.33" x2="544.321" y2="828.735" gradientUnits="userSpaceOnUse">
<stop stop-color="#FF003D"/>
<stop offset="1" stop-color="#D24CC5"/>
</linearGradient>
<linearGradient id="paint42_linear_1394_473" x1="623.092" y1="796.33" x2="728.321" y2="828.735" gradientUnits="userSpaceOnUse">
<stop stop-color="#FF003D"/>
<stop offset="1" stop-color="#D24CC5"/>
</linearGradient>
<linearGradient id="paint43_linear_1394_473" x1="807.092" y1="796.33" x2="912.321" y2="828.735" gradientUnits="userSpaceOnUse">
<stop stop-color="#FF003D"/>
<stop offset="1" stop-color="#D24CC5"/>
</linearGradient>
<linearGradient id="paint44_linear_1394_473" x1="991.092" y1="796.33" x2="1096.32" y2="828.735" gradientUnits="userSpaceOnUse">
<stop stop-color="#FF003D"/>
<stop offset="1" stop-color="#D24CC5"/>
</linearGradient>
<linearGradient id="paint45_linear_1394_473" x1="1359.09" y1="796.33" x2="1464.32" y2="828.735" gradientUnits="userSpaceOnUse">
<stop stop-color="#FF003D"/>
<stop offset="1" stop-color="#D24CC5"/>
</linearGradient>
<linearGradient id="paint46_linear_1394_473" x1="1175.09" y1="796.33" x2="1280.32" y2="828.735" gradientUnits="userSpaceOnUse">
<stop stop-color="#FF003D"/>
<stop offset="1" stop-color="#D24CC5"/>
</linearGradient>
<linearGradient id="paint47_linear_1394_473" x1="1543.09" y1="796.33" x2="1648.32" y2="828.735" gradientUnits="userSpaceOnUse">
<stop stop-color="#FF003D"/>
<stop offset="1" stop-color="#D24CC5"/>
</linearGradient>
<linearGradient id="paint48_linear_1394_473" x1="991.092" y1="796.33" x2="1096.32" y2="828.735" gradientUnits="userSpaceOnUse">
<stop stop-color="#FF003D"/>
<stop offset="1" stop-color="#D24CC5"/>
</linearGradient>
<linearGradient id="paint49_linear_1394_473" x1="191.092" y1="977.33" x2="296.321" y2="1009.73" gradientUnits="userSpaceOnUse">
<stop stop-color="#FF003D"/>
<stop offset="1" stop-color="#D24CC5"/>
</linearGradient>
<linearGradient id="paint50_linear_1394_473" x1="375.092" y1="977.33" x2="480.321" y2="1009.73" gradientUnits="userSpaceOnUse">
<stop stop-color="#FF003D"/>
<stop offset="1" stop-color="#D24CC5"/>
</linearGradient>
<linearGradient id="paint51_linear_1394_473" x1="559.092" y1="977.33" x2="664.321" y2="1009.73" gradientUnits="userSpaceOnUse">
<stop stop-color="#FF003D"/>
<stop offset="1" stop-color="#D24CC5"/>
</linearGradient>
<linearGradient id="paint52_linear_1394_473" x1="743.092" y1="977.33" x2="848.321" y2="1009.73" gradientUnits="userSpaceOnUse">
<stop stop-color="#FF003D"/>
<stop offset="1" stop-color="#D24CC5"/>
</linearGradient>
<linearGradient id="paint53_linear_1394_473" x1="927.092" y1="977.33" x2="1032.32" y2="1009.73" gradientUnits="userSpaceOnUse">
<stop stop-color="#FF003D"/>
<stop offset="1" stop-color="#D24CC5"/>
</linearGradient>
<linearGradient id="paint54_linear_1394_473" x1="1111.09" y1="977.33" x2="1216.32" y2="1009.73" gradientUnits="userSpaceOnUse">
<stop stop-color="#FF003D"/>
<stop offset="1" stop-color="#D24CC5"/>
</linearGradient>
<linearGradient id="paint55_linear_1394_473" x1="1479.09" y1="977.33" x2="1584.32" y2="1009.73" gradientUnits="userSpaceOnUse">
<stop stop-color="#FF003D"/>
<stop offset="1" stop-color="#D24CC5"/>
</linearGradient>
<linearGradient id="paint56_linear_1394_473" x1="1295.09" y1="977.33" x2="1400.32" y2="1009.73" gradientUnits="userSpaceOnUse">
<stop stop-color="#FF003D"/>
<stop offset="1" stop-color="#D24CC5"/>
</linearGradient>
<linearGradient id="paint57_linear_1394_473" x1="1663.09" y1="977.33" x2="1768.32" y2="1009.73" gradientUnits="userSpaceOnUse">
<stop stop-color="#FF003D"/>
<stop offset="1" stop-color="#D24CC5"/>
</linearGradient>
</defs>
</svg>
